<?xml version="1.0" encoding="utf-8"?>
<!-- Svg Vector Icons : http://www.onlinewebfonts.com/icon -->
<!DOCTYPE svg PUBLIC "-//W3C//DTD SVG 1.1//EN" "http://www.w3.org/Graphics/SVG/1.1/DTD/svg11.dtd">
<svg version="1.1" xmlns="http://www.w3.org/2000/svg" xmlns:xlink="http://www.w3.org/1999/xlink" x="0px" y="0px" viewBox="0 0 1000 1000" enable-background="new 0 0 1000 1000" xml:space="preserve">
<metadata> Svg Vector Icons : http://www.onlinewebfonts.com/icon </metadata>
<g><g transform="translate(0.000000,511.000000) scale(0.100000,-0.100000)"><path d="M1030,2940.8c-80.6-58.5-102.8-147.2-102.8-421.4v-252h72.6c56.5,0,88.7-16.1,143.2-70.6c68.5-68.6,70.6-76.6,62.5-183.5c-8.1-86.7-22.2-123-64.5-165.3c-52.4-54.4-56.5-54.4-401.2-64.5c-383.1-12.1-423.4-22.2-534.3-149.2c-34.3-40.3-72.6-104.8-82.7-147.2c-30.2-104.8-30.2-2649.4,0-2754.2c26.2-98.8,127-211.7,229.9-258.1c66.5-30.2,135.1-38.3,399.2-38.3h320.6l68.5-68.6c60.5-60.5,68.5-80.6,68.5-171.4c0-135.1-70.6-221.8-195.6-237.9l-86.7-12.1v-250c0-270.2,22.2-360.9,102.8-417.4c42.3-30.3,377-32.3,3970-32.3s3927.7,2,3970,32.3c80.7,58.5,102.8,147.2,102.8,421.4v252h-54.5c-153.2,0-258.1,161.3-211.7,318.6c44.4,145.2,66.5,153.3,455.7,165.3c381.1,12.1,421.4,22.2,532.3,149.2c34.3,40.3,72.6,104.8,82.7,147.2c30.2,104.8,30.2,2649.4,0,2754.2c-26.2,98.8-127.1,211.7-229.9,258.1c-66.5,30.2-135.1,38.3-383.1,38.3c-356.9,0-413.3,20.2-455.7,161.3c-48.4,161.3,54.4,322.6,209.7,322.6h54.5v252c0,274.2-22.2,362.9-102.8,421.4c-42.3,30.2-377,32.3-3970,32.3S1072.3,2971.1,1030,2940.8z M1594.5,906.4c76.6-40.3,94.8-88.7,110.9-312.5l14.1-181.5H1897h175.4L2268,632.2c104.8,123,211.7,227.8,233.9,233.9c82.7,26.2,141.1-14.1,332.7-231.9l193.6-221.8h187.5h185.5l14.1,76.6c6.1,40.3,12.1,110.9,12.1,155.3c0,119,36.3,225.8,86.7,262.1c64.5,44.4,163.3,38.3,227.8-16.1c50.4-42.3,56.5-66.5,74.6-262.1l20.2-215.7h352.8h352.8l88.7,82.7c119,108.9,209.7,145.2,369,145.2c159.3,0,250-36.3,369-145.2l88.7-82.7h352.8h350.8l22.2,215.7c18.1,195.6,24.2,217.7,74.6,262.1c64.5,54.4,163.3,60.5,227.8,16.1c50.4-36.3,86.7-143.2,86.7-262.1c0-44.4,6-114.9,12.1-155.3l14.1-76.6h185.5h187.5l193.6,221.8c199.6,227.8,258.1,266.1,342.8,225.8c26.2-10.1,127-114.9,225.8-231.9l179.5-213.7H8097l183.5-2l14.1,181.5c8.1,100.8,22.2,205.7,32.3,231.9c26.2,70.6,139.1,121,213.7,96.8c106.9-36.3,127-88.7,157.3-453.7c26.2-292.4,26.2-381.1,2-695.6l-30.3-358.9l-60.5-54.4c-80.6-74.6-167.3-74.6-242,0c-50.4,52.4-58.5,74.6-70.6,252l-14.1,195.6H8107l-173.4-2l-195.6-227.9c-211.7-248-274.2-288.3-364.9-227.8c-26.2,16.1-127,125-225.8,244l-181.5,211.7l-185.5,2h-185.5l-10.1-64.5c-6.1-36.3-14.1-125-22.2-195.6c-14.1-167.3-60.5-223.8-181.5-223.8c-125,0-171.4,60.5-193.6,246c-8.1,80.7-16.2,167.3-18.2,193.6c0,44.4,0,44.4-358.9,44.4h-358.9l-68.6-70.6c-207.7-213.7-558.5-213.7-766.2,0l-68.5,70.6h-354.9h-356.9L3816.5-386c-24.2-229.9-68.5-294.4-197.6-294.4c-116.9,0-171.4,68.6-183.5,227.8c-6,70.6-14.1,159.3-20.2,195.6l-10.1,64.5h-185.5l-185.5-2l-181.5-211.7c-98.8-119-199.6-227.9-225.8-244c-90.7-60.5-153.2-20.2-364.9,227.8l-195.6,227.9l-173.4,2h-175.4L1703.4-386c-16.1-221.8-52.4-284.3-173.4-302.4c-60.5-10.1-82.7-4-137.1,44.3l-62.5,58.5l-30.2,356.9c-26.2,312.5-26.2,395.2,0,693.6c32.3,352.8,50.4,417.4,137.1,451.6C1501.8,942.7,1526,940.7,1594.5,906.4z"/></g></g>
</svg>